<mxfile host="app.diagrams.net" modified="2023-09-23T13:48:30.961Z" agent="Mozilla/5.0 (Macintosh; Intel Mac OS X 10_15_7) AppleWebKit/537.36 (KHTML, like Gecko) Chrome/116.0.0.0 Safari/537.36" etag="XUSGgDaKjAU_A044ptZR" version="21.8.0" type="device">
  <diagram id="C5RBs43oDa-KdzZeNtuy" name="Page-1">
    <mxGraphModel dx="2460" dy="3843" grid="1" gridSize="10" guides="1" tooltips="1" connect="1" arrows="1" fold="1" page="1" pageScale="1" pageWidth="827" pageHeight="1169" math="0" shadow="0">
      <root>
        <mxCell id="WIyWlLk6GJQsqaUBKTNV-0" />
        <mxCell id="WIyWlLk6GJQsqaUBKTNV-1" parent="WIyWlLk6GJQsqaUBKTNV-0" />
        <mxCell id="upNr1Lp3ZzRcl3v6VOv--2" value="" style="edgeStyle=orthogonalEdgeStyle;rounded=0;orthogonalLoop=1;jettySize=auto;html=1;" edge="1" parent="WIyWlLk6GJQsqaUBKTNV-1" source="upNr1Lp3ZzRcl3v6VOv--0" target="upNr1Lp3ZzRcl3v6VOv--1">
          <mxGeometry relative="1" as="geometry" />
        </mxCell>
        <mxCell id="upNr1Lp3ZzRcl3v6VOv--0" value="&lt;font style=&quot;font-size: 16px;&quot;&gt;MULAI&lt;/font&gt;" style="strokeWidth=2;html=1;shape=mxgraph.flowchart.terminator;whiteSpace=wrap;" vertex="1" parent="WIyWlLk6GJQsqaUBKTNV-1">
          <mxGeometry x="407.03" y="-2250" width="90" height="40" as="geometry" />
        </mxCell>
        <mxCell id="upNr1Lp3ZzRcl3v6VOv--4" value="" style="edgeStyle=orthogonalEdgeStyle;rounded=0;orthogonalLoop=1;jettySize=auto;html=1;" edge="1" parent="WIyWlLk6GJQsqaUBKTNV-1" source="upNr1Lp3ZzRcl3v6VOv--1" target="upNr1Lp3ZzRcl3v6VOv--3">
          <mxGeometry relative="1" as="geometry" />
        </mxCell>
        <mxCell id="upNr1Lp3ZzRcl3v6VOv--1" value="&lt;font style=&quot;font-size: 15px;&quot;&gt;Inisialisasi Data yaitu&amp;nbsp;&amp;nbsp;data dosen, mata kuliah, kelompok kuliah, kelas, dan ruang kelas.&lt;/font&gt;&lt;span style=&quot;font-size: medium; text-align: start;&quot;&gt;&lt;/span&gt;" style="shape=parallelogram;perimeter=parallelogramPerimeter;whiteSpace=wrap;html=1;fixedSize=1;strokeWidth=2;" vertex="1" parent="WIyWlLk6GJQsqaUBKTNV-1">
          <mxGeometry x="300" y="-2160" width="304.06" height="100" as="geometry" />
        </mxCell>
        <mxCell id="upNr1Lp3ZzRcl3v6VOv--6" value="" style="edgeStyle=orthogonalEdgeStyle;rounded=0;orthogonalLoop=1;jettySize=auto;html=1;" edge="1" parent="WIyWlLk6GJQsqaUBKTNV-1" source="upNr1Lp3ZzRcl3v6VOv--3" target="upNr1Lp3ZzRcl3v6VOv--5">
          <mxGeometry relative="1" as="geometry" />
        </mxCell>
        <mxCell id="upNr1Lp3ZzRcl3v6VOv--3" value="&lt;font style=&quot;font-size: 15px;&quot;&gt;Pengkodean Data&amp;nbsp;&lt;br&gt;-Representasi Jadwal&lt;br&gt;-Representasi Nilai Jadwal&lt;/font&gt;" style="whiteSpace=wrap;html=1;strokeWidth=2;" vertex="1" parent="WIyWlLk6GJQsqaUBKTNV-1">
          <mxGeometry x="332.65999999999997" y="-1970" width="240" height="60" as="geometry" />
        </mxCell>
        <mxCell id="upNr1Lp3ZzRcl3v6VOv--8" value="" style="edgeStyle=orthogonalEdgeStyle;rounded=0;orthogonalLoop=1;jettySize=auto;html=1;" edge="1" parent="WIyWlLk6GJQsqaUBKTNV-1" source="upNr1Lp3ZzRcl3v6VOv--5" target="upNr1Lp3ZzRcl3v6VOv--7">
          <mxGeometry relative="1" as="geometry" />
        </mxCell>
        <mxCell id="upNr1Lp3ZzRcl3v6VOv--5" value="&lt;font style=&quot;font-size: 15px;&quot;&gt;Pembentukan Kumpulan Jadwal&lt;/font&gt;" style="whiteSpace=wrap;html=1;strokeWidth=2;" vertex="1" parent="WIyWlLk6GJQsqaUBKTNV-1">
          <mxGeometry x="355.78" y="-1830" width="193.75" height="60" as="geometry" />
        </mxCell>
        <mxCell id="upNr1Lp3ZzRcl3v6VOv--10" value="" style="edgeStyle=orthogonalEdgeStyle;rounded=0;orthogonalLoop=1;jettySize=auto;html=1;" edge="1" parent="WIyWlLk6GJQsqaUBKTNV-1" source="upNr1Lp3ZzRcl3v6VOv--7" target="upNr1Lp3ZzRcl3v6VOv--9">
          <mxGeometry relative="1" as="geometry" />
        </mxCell>
        <mxCell id="upNr1Lp3ZzRcl3v6VOv--7" value="&lt;font style=&quot;font-size: 15px;&quot;&gt;Proses Evaluasi&lt;/font&gt;" style="whiteSpace=wrap;html=1;strokeWidth=2;" vertex="1" parent="WIyWlLk6GJQsqaUBKTNV-1">
          <mxGeometry x="355.78" y="-1690" width="193.75" height="60" as="geometry" />
        </mxCell>
        <mxCell id="upNr1Lp3ZzRcl3v6VOv--12" value="" style="edgeStyle=orthogonalEdgeStyle;rounded=0;orthogonalLoop=1;jettySize=auto;html=1;" edge="1" parent="WIyWlLk6GJQsqaUBKTNV-1" source="upNr1Lp3ZzRcl3v6VOv--9" target="upNr1Lp3ZzRcl3v6VOv--11">
          <mxGeometry relative="1" as="geometry" />
        </mxCell>
        <mxCell id="upNr1Lp3ZzRcl3v6VOv--9" value="&lt;font style=&quot;font-size: 15px;&quot;&gt;Fitness =1?&lt;br&gt;Komponen terpenuhi?&lt;/font&gt;" style="rhombus;whiteSpace=wrap;html=1;strokeWidth=2;" vertex="1" parent="WIyWlLk6GJQsqaUBKTNV-1">
          <mxGeometry x="337.19" y="-1570" width="229.69" height="100" as="geometry" />
        </mxCell>
        <mxCell id="upNr1Lp3ZzRcl3v6VOv--14" value="" style="edgeStyle=orthogonalEdgeStyle;rounded=0;orthogonalLoop=1;jettySize=auto;html=1;" edge="1" parent="WIyWlLk6GJQsqaUBKTNV-1" source="upNr1Lp3ZzRcl3v6VOv--11" target="upNr1Lp3ZzRcl3v6VOv--13">
          <mxGeometry relative="1" as="geometry" />
        </mxCell>
        <mxCell id="upNr1Lp3ZzRcl3v6VOv--11" value="&lt;font style=&quot;font-size: 15px;&quot;&gt;Proses Seleksi Rank Based Fitness Assigment&amp;nbsp;&lt;/font&gt;" style="whiteSpace=wrap;html=1;strokeWidth=2;" vertex="1" parent="WIyWlLk6GJQsqaUBKTNV-1">
          <mxGeometry x="360.78999999999996" y="-1380" width="183.75" height="80" as="geometry" />
        </mxCell>
        <mxCell id="upNr1Lp3ZzRcl3v6VOv--16" value="" style="edgeStyle=orthogonalEdgeStyle;rounded=0;orthogonalLoop=1;jettySize=auto;html=1;" edge="1" parent="WIyWlLk6GJQsqaUBKTNV-1" source="upNr1Lp3ZzRcl3v6VOv--13" target="upNr1Lp3ZzRcl3v6VOv--15">
          <mxGeometry relative="1" as="geometry" />
        </mxCell>
        <mxCell id="upNr1Lp3ZzRcl3v6VOv--13" value="&lt;span style=&quot;font-size: 15px;&quot;&gt;Proses Kombinasi (Cross Over)&lt;/span&gt;" style="whiteSpace=wrap;html=1;strokeWidth=2;" vertex="1" parent="WIyWlLk6GJQsqaUBKTNV-1">
          <mxGeometry x="360.78999999999996" y="-1220" width="183.75" height="80" as="geometry" />
        </mxCell>
        <mxCell id="upNr1Lp3ZzRcl3v6VOv--15" value="&lt;span style=&quot;font-size: 15px;&quot;&gt;Proses Mutasi&lt;/span&gt;" style="whiteSpace=wrap;html=1;strokeWidth=2;" vertex="1" parent="WIyWlLk6GJQsqaUBKTNV-1">
          <mxGeometry x="360.78999999999996" y="-1060" width="183.75" height="80" as="geometry" />
        </mxCell>
        <mxCell id="upNr1Lp3ZzRcl3v6VOv--21" value="" style="edgeStyle=orthogonalEdgeStyle;rounded=0;orthogonalLoop=1;jettySize=auto;html=1;" edge="1" parent="WIyWlLk6GJQsqaUBKTNV-1" source="upNr1Lp3ZzRcl3v6VOv--19">
          <mxGeometry relative="1" as="geometry">
            <mxPoint x="450.6600000000003" y="-760" as="targetPoint" />
          </mxGeometry>
        </mxCell>
        <mxCell id="upNr1Lp3ZzRcl3v6VOv--19" value="&lt;font style=&quot;font-size: 15px;&quot;&gt;Kromosom Terbaik&lt;/font&gt;" style="shape=parallelogram;perimeter=parallelogramPerimeter;whiteSpace=wrap;html=1;fixedSize=1;" vertex="1" parent="WIyWlLk6GJQsqaUBKTNV-1">
          <mxGeometry x="332.66" y="-900" width="236" height="60" as="geometry" />
        </mxCell>
        <mxCell id="upNr1Lp3ZzRcl3v6VOv--24" value="&lt;span style=&quot;font-size: 16px;&quot;&gt;Selesai&lt;/span&gt;" style="strokeWidth=2;html=1;shape=mxgraph.flowchart.terminator;whiteSpace=wrap;" vertex="1" parent="WIyWlLk6GJQsqaUBKTNV-1">
          <mxGeometry x="408.40000000000003" y="-561" width="90" height="40" as="geometry" />
        </mxCell>
        <mxCell id="upNr1Lp3ZzRcl3v6VOv--29" value="" style="edgeStyle=orthogonalEdgeStyle;rounded=0;orthogonalLoop=1;jettySize=auto;html=1;" edge="1" parent="WIyWlLk6GJQsqaUBKTNV-1" source="upNr1Lp3ZzRcl3v6VOv--27" target="upNr1Lp3ZzRcl3v6VOv--24">
          <mxGeometry relative="1" as="geometry" />
        </mxCell>
        <mxCell id="upNr1Lp3ZzRcl3v6VOv--27" value="&lt;font style=&quot;font-size: 15px;&quot;&gt;Hasil Penjadwalan Mata Pelajaran&lt;/font&gt;" style="shape=parallelogram;perimeter=parallelogramPerimeter;whiteSpace=wrap;html=1;fixedSize=1;" vertex="1" parent="WIyWlLk6GJQsqaUBKTNV-1">
          <mxGeometry x="342.2" y="-760" width="219.67" height="90" as="geometry" />
        </mxCell>
        <mxCell id="upNr1Lp3ZzRcl3v6VOv--30" value="&lt;font style=&quot;font-size: 17px;&quot;&gt;No&lt;/font&gt;" style="text;html=1;align=center;verticalAlign=middle;resizable=0;points=[];autosize=1;strokeColor=none;fillColor=none;" vertex="1" parent="WIyWlLk6GJQsqaUBKTNV-1">
          <mxGeometry x="455" y="-1452" width="50" height="30" as="geometry" />
        </mxCell>
        <mxCell id="upNr1Lp3ZzRcl3v6VOv--31" value="" style="endArrow=none;html=1;rounded=0;" edge="1" parent="WIyWlLk6GJQsqaUBKTNV-1">
          <mxGeometry width="50" height="50" relative="1" as="geometry">
            <mxPoint x="566.88" y="-1520" as="sourcePoint" />
            <mxPoint x="680" y="-1520" as="targetPoint" />
          </mxGeometry>
        </mxCell>
        <mxCell id="upNr1Lp3ZzRcl3v6VOv--32" value="" style="endArrow=none;html=1;rounded=0;" edge="1" parent="WIyWlLk6GJQsqaUBKTNV-1">
          <mxGeometry width="50" height="50" relative="1" as="geometry">
            <mxPoint x="680" y="-870" as="sourcePoint" />
            <mxPoint x="680" y="-1520" as="targetPoint" />
          </mxGeometry>
        </mxCell>
        <mxCell id="upNr1Lp3ZzRcl3v6VOv--33" value="" style="endArrow=classic;html=1;rounded=0;entryX=1;entryY=0.5;entryDx=0;entryDy=0;" edge="1" parent="WIyWlLk6GJQsqaUBKTNV-1" target="upNr1Lp3ZzRcl3v6VOv--19">
          <mxGeometry width="50" height="50" relative="1" as="geometry">
            <mxPoint x="680" y="-870" as="sourcePoint" />
            <mxPoint x="730" y="-920" as="targetPoint" />
          </mxGeometry>
        </mxCell>
        <mxCell id="upNr1Lp3ZzRcl3v6VOv--34" value="&lt;font style=&quot;font-size: 17px;&quot;&gt;Yes&lt;/font&gt;" style="text;html=1;align=center;verticalAlign=middle;resizable=0;points=[];autosize=1;strokeColor=none;fillColor=none;" vertex="1" parent="WIyWlLk6GJQsqaUBKTNV-1">
          <mxGeometry x="565" y="-1512" width="50" height="30" as="geometry" />
        </mxCell>
        <mxCell id="upNr1Lp3ZzRcl3v6VOv--35" value="" style="endArrow=none;html=1;rounded=0;" edge="1" parent="WIyWlLk6GJQsqaUBKTNV-1">
          <mxGeometry width="50" height="50" relative="1" as="geometry">
            <mxPoint x="210" y="-1020.71" as="sourcePoint" />
            <mxPoint x="360.79" y="-1020.71" as="targetPoint" />
          </mxGeometry>
        </mxCell>
        <mxCell id="upNr1Lp3ZzRcl3v6VOv--36" value="" style="endArrow=classic;html=1;rounded=0;" edge="1" parent="WIyWlLk6GJQsqaUBKTNV-1">
          <mxGeometry width="50" height="50" relative="1" as="geometry">
            <mxPoint x="210" y="-1020" as="sourcePoint" />
            <mxPoint x="210" y="-1310" as="targetPoint" />
          </mxGeometry>
        </mxCell>
        <mxCell id="upNr1Lp3ZzRcl3v6VOv--37" value="&lt;span style=&quot;font-size: 15px;&quot;&gt;Proses Regenerasi&lt;/span&gt;" style="whiteSpace=wrap;html=1;strokeWidth=2;" vertex="1" parent="WIyWlLk6GJQsqaUBKTNV-1">
          <mxGeometry x="116.24999999999997" y="-1390" width="183.75" height="80" as="geometry" />
        </mxCell>
        <mxCell id="upNr1Lp3ZzRcl3v6VOv--38" value="" style="endArrow=none;html=1;rounded=0;" edge="1" parent="WIyWlLk6GJQsqaUBKTNV-1">
          <mxGeometry width="50" height="50" relative="1" as="geometry">
            <mxPoint x="210" y="-1390" as="sourcePoint" />
            <mxPoint x="210" y="-1520" as="targetPoint" />
          </mxGeometry>
        </mxCell>
        <mxCell id="upNr1Lp3ZzRcl3v6VOv--39" value="" style="endArrow=classic;html=1;rounded=0;" edge="1" parent="WIyWlLk6GJQsqaUBKTNV-1" target="upNr1Lp3ZzRcl3v6VOv--9">
          <mxGeometry width="50" height="50" relative="1" as="geometry">
            <mxPoint x="210" y="-1520" as="sourcePoint" />
            <mxPoint x="260" y="-1570" as="targetPoint" />
          </mxGeometry>
        </mxCell>
        <mxCell id="upNr1Lp3ZzRcl3v6VOv--45" value="" style="endArrow=none;html=1;rounded=0;" edge="1" parent="WIyWlLk6GJQsqaUBKTNV-1">
          <mxGeometry width="50" height="50" relative="1" as="geometry">
            <mxPoint x="280" y="-940" as="sourcePoint" />
            <mxPoint x="600" y="-940" as="targetPoint" />
          </mxGeometry>
        </mxCell>
        <mxCell id="upNr1Lp3ZzRcl3v6VOv--52" value="" style="endArrow=none;html=1;rounded=0;" edge="1" parent="WIyWlLk6GJQsqaUBKTNV-1">
          <mxGeometry width="50" height="50" relative="1" as="geometry">
            <mxPoint x="281" y="-940" as="sourcePoint" />
            <mxPoint x="281" y="-1270" as="targetPoint" />
          </mxGeometry>
        </mxCell>
        <mxCell id="upNr1Lp3ZzRcl3v6VOv--53" value="" style="endArrow=none;html=1;rounded=0;" edge="1" parent="WIyWlLk6GJQsqaUBKTNV-1">
          <mxGeometry width="50" height="50" relative="1" as="geometry">
            <mxPoint x="280" y="-1270" as="sourcePoint" />
            <mxPoint x="600" y="-1270" as="targetPoint" />
          </mxGeometry>
        </mxCell>
        <mxCell id="upNr1Lp3ZzRcl3v6VOv--54" value="" style="endArrow=none;html=1;rounded=0;" edge="1" parent="WIyWlLk6GJQsqaUBKTNV-1">
          <mxGeometry width="50" height="50" relative="1" as="geometry">
            <mxPoint x="600" y="-940" as="sourcePoint" />
            <mxPoint x="599.53" y="-1270" as="targetPoint" />
          </mxGeometry>
        </mxCell>
        <mxCell id="upNr1Lp3ZzRcl3v6VOv--56" value="Generate Populasi Baru" style="text;html=1;strokeColor=none;fillColor=none;align=center;verticalAlign=middle;whiteSpace=wrap;rounded=0;" vertex="1" parent="WIyWlLk6GJQsqaUBKTNV-1">
          <mxGeometry x="295.78" y="-1260" width="134.22" height="30" as="geometry" />
        </mxCell>
      </root>
    </mxGraphModel>
  </diagram>
</mxfile>
